<?xml version="1.0" standalone="no"?>
<!DOCTYPE svg PUBLIC "-//W3C//DTD SVG 20010904//EN"
 "http://www.w3.org/TR/2001/REC-SVG-20010904/DTD/svg10.dtd">
<svg version="1.0" xmlns="http://www.w3.org/2000/svg"
 width="30" height="auto" viewBox="0 0 1083.000000 1369.000000"
 preserveAspectRatio="xMidYMid meet">

<g transform="translate(0.000000,1369.000000) scale(0.100000,-0.100000)"
fill="currentColor" stroke="none">
<path d="M5800 13684 c-663 -45 -1105 -127 -1641 -304 -720 -238 -1385 -611
-1989 -1113 -180 -150 -590 -558 -734 -732 -844 -1015 -1312 -2165 -1416
-3480 -16 -196 -13 -690 5 -910 166 -2054 1357 -3874 3180 -4858 680 -368
1488 -615 2248 -689 l127 -12 0 -788 0 -788 485 0 485 0 0 788 0 788 128 12
c718 68 1461 285 2127 622 624 315 1165 720 1660 1240 113 119 356 399 354
410 0 8 -748 595 -755 593 -3 -1 -42 -45 -87 -99 -677 -811 -1600 -1400 -2607
-1663 -251 -66 -674 -141 -791 -141 l-29 0 2 707 3 706 135 23 c344 58 701
174 1015 331 932 467 1630 1309 1911 2306 147 523 174 1130 73 1672 -277 1492
-1466 2677 -2959 2949 -237 43 -310 48 -732 53 l-418 5 0 -3180 0 -3180 -92
20 c-375 81 -739 250 -1063 492 -142 107 -391 351 -495 486 -233 302 -385 604
-485 960 -54 194 -95 465 -95 632 l0 88 -487 0 -486 0 7 -149 c42 -930 405
-1770 1050 -2430 546 -557 1249 -927 2006 -1055 l135 -23 3 -706 2 -707 -30 0
c-47 0 -310 38 -455 66 -1331 256 -2524 1055 -3280 2199 -1119 1691 -1126
3886 -18 5580 675 1030 1691 1783 2864 2120 292 84 584 139 929 177 185 20
797 17 1000 -5 1031 -113 1952 -502 2740 -1157 159 -132 439 -407 583 -573 61
-70 114 -126 118 -125 24 9 738 595 736 605 -5 26 -234 281 -422 468 -272 273
-505 470 -795 673 -879 616 -1866 977 -2950 1077 -156 15 -681 27 -800 19z
m932 -3423 c648 -166 1195 -549 1580 -1106 245 -355 415 -820 459 -1259 17
-174 7 -537 -20 -696 -95 -557 -342 -1051 -724 -1447 -390 -404 -854 -665
-1389 -782 l-88 -19 0 2674 c0 2348 2 2674 15 2674 8 0 83 -18 167 -39z"/>
</g>
</svg>
